<?xml version="1.0" encoding="UTF-8"?>
<svg xmlns="http://www.w3.org/2000/svg" xmlns:xlink="http://www.w3.org/1999/xlink" width="500pt" height="500pt" viewBox="0 0 500 500" version="1.1">
<g id="surface1">
<path style=" stroke:none;fill-rule:nonzero;fill:#ACACAC;fill-opacity:1;" d="M 189.847656 29.800781 C 188.957031 29.878906 188.066406 30.109375 187.214844 30.460938 L 137.183594 39.835938 C 132.457031 40.691406 129.046875 44.796875 129.046875 49.601563 L 129.046875 105.097656 C 129.046875 144.277344 115.289063 181.671875 92.230469 205.078125 C 90.371094 206.9375 89.363281 209.457031 89.363281 212.054688 L 89.363281 456.347656 C 89.363281 461.851563 93.78125 466.269531 99.285156 466.269531 L 396.746094 466.269531 C 402.25 466.269531 406.667969 461.851563 406.667969 456.347656 L 406.667969 211.898438 C 406.667969 209.300781 405.660156 206.820313 403.839844 204.960938 C 380.511719 181.167969 367.0625 144.777344 367.0625 105.097656 L 367.0625 49.601563 C 367.0625 44.796875 363.691406 40.691406 359.003906 39.835938 L 310.367188 31.039063 L 308.972656 30.460938 C 305.796875 29.21875 302.191406 29.800781 299.480469 31.777344 C 299.246094 31.933594 299.015625 32.046875 298.820313 32.203125 L 298.046875 32.785156 C 291.574219 37.824219 270.726563 50.535156 248.09375 50.535156 C 225.34375 50.535156 204.34375 37.707031 197.988281 32.707031 C 197.675781 32.472656 197.40625 32.242188 197.367188 32.242188 C 195.273438 30.382813 192.523438 29.53125 189.847656 29.800781 Z M 199.03125 56.113281 C 211.046875 63.167969 226.816406 70.375 248.09375 70.375 C 269.367188 70.375 285.140625 63.167969 297.152344 56.113281 C 297.230469 57.585938 297.695313 58.941406 297.695313 60.453125 C 297.695313 62.507813 297.582031 64.523438 297.425781 66.5 C 296.300781 79.714844 291.496094 91.535156 284.328125 100.757813 C 283.902344 101.375 283.511719 102.074219 283.046875 102.617188 C 281.964844 103.894531 280.839844 105.136719 279.675781 106.296875 C 279.675781 106.296875 279.636719 106.335938 279.636719 106.335938 C 278.746094 107.226563 277.777344 108.042969 276.847656 108.855469 C 276.460938 109.203125 276.074219 109.554688 275.644531 109.902344 C 275.027344 110.40625 274.367188 110.871094 273.707031 111.335938 C 272.972656 111.878906 272.234375 112.421875 271.5 112.886719 C 271.035156 113.15625 270.570313 113.390625 270.144531 113.660156 C 269.136719 114.28125 268.167969 114.863281 267.121094 115.367188 C 266.734375 115.597656 266.269531 115.753906 265.84375 115.949219 C 264.796875 116.453125 263.710938 116.953125 262.625 117.34375 C 262.121094 117.535156 261.578125 117.652344 261.035156 117.808594 C 259.992188 118.15625 258.945313 118.542969 257.859375 118.777344 C 256.308594 119.164063 254.757813 119.472656 253.132813 119.667969 C 251.464844 119.863281 249.796875 119.976563 248.09375 119.976563 C 246.386719 119.976563 244.722656 119.863281 243.054688 119.667969 C 243.054688 119.667969 243.015625 119.667969 243.015625 119.667969 C 241.429688 119.472656 239.878906 119.164063 238.328125 118.777344 C 237.011719 118.464844 235.730469 118.039063 234.414063 117.613281 C 234.140625 117.496094 233.871094 117.457031 233.601563 117.34375 C 232.050781 116.800781 230.578125 116.140625 229.105469 115.445313 C 227.710938 114.746094 226.351563 113.933594 225.035156 113.117188 C 224.917969 113.039063 224.84375 113.003906 224.765625 112.964844 C 223.640625 112.226563 222.59375 111.414063 221.507813 110.636719 C 221.199219 110.40625 220.890625 110.210938 220.617188 109.980469 C 219.882813 109.398438 219.183594 108.738281 218.449219 108.082031 C 217.867188 107.539063 217.246094 107.035156 216.703125 106.492188 C 216.199219 105.988281 215.734375 105.445313 215.269531 104.941406 C 214.574219 104.207031 213.875 103.507813 213.214844 102.734375 C 212.363281 101.726563 211.703125 100.5625 210.929688 99.476563 C 209.574219 97.617188 208.140625 95.796875 206.9375 93.703125 C 205.15625 90.527344 203.644531 87.15625 202.402344 83.589844 C 201.746094 81.804688 201.203125 79.984375 200.738281 78.125 C 200.699219 78.007813 200.660156 77.890625 200.621094 77.738281 C 200.195313 76.03125 199.808594 74.25 199.496094 72.46875 C 199.304688 71.382813 199.226563 70.296875 199.070313 69.210938 C 198.992188 68.359375 198.839844 67.507813 198.761719 66.652344 C 198.605469 64.640625 198.488281 62.546875 198.488281 60.453125 C 198.488281 58.941406 198.957031 57.625 199.03125 56.113281 Z M 178.570313 208.332031 L 228.175781 208.332031 L 238.09375 218.253906 L 238.09375 267.855469 L 188.492188 297.617188 L 188.492188 307.539063 L 238.09375 307.539063 L 238.09375 327.382813 L 168.652344 327.382813 L 168.652344 287.699219 L 218.253906 257.9375 L 218.253906 228.175781 L 188.492188 228.175781 L 188.492188 238.09375 L 168.652344 238.09375 L 168.652344 218.253906 Z M 267.855469 208.332031 L 317.460938 208.332031 L 327.382813 218.253906 L 327.382813 257.9375 L 317.460938 267.855469 L 327.382813 277.777344 L 327.382813 317.460938 L 317.460938 327.382813 L 267.855469 327.382813 L 257.9375 317.460938 L 257.9375 297.617188 L 277.777344 297.617188 L 277.777344 307.539063 L 307.539063 307.539063 L 307.539063 277.777344 L 287.699219 277.777344 L 287.699219 257.9375 L 307.539063 257.9375 L 307.539063 228.175781 L 277.777344 228.175781 L 277.777344 238.09375 L 257.9375 238.09375 L 257.9375 218.253906 Z "/>
</g>
</svg>
