<?xml version="1.0" encoding="UTF-8"?>
<svg xmlns="http://www.w3.org/2000/svg" xmlns:xlink="http://www.w3.org/1999/xlink" width="480pt" height="480pt" viewBox="0 0 480 480" version="1.1">
<g id="surface1">
<path style=" stroke:none;fill-rule:nonzero;fill:#ACACAC;fill-opacity:1;" d="M 300.125 160.792969 C 305.304688 155.488281 315.789063 143.648438 315.789063 131.433594 C 315.789063 115.953125 300 98.871094 300 98.871094 C 299.816406 82.464844 315.789063 63.15625 315.789063 63.15625 L 291.734375 47.367188 C 277.179688 77.714844 236.84375 104.234375 236.84375 104.234375 C 236.84375 104.234375 196.503906 77.714844 181.949219 47.367188 L 157.894531 63.15625 C 157.894531 63.15625 173.871094 82.464844 173.683594 98.871094 C 173.683594 98.871094 157.894531 115.890625 157.894531 131.433594 C 157.894531 143.648438 168.378906 155.488281 173.5625 160.792969 C 184.230469 195.703125 150 221.976563 150 268.421875 C 150 321.464844 164.308594 387.519531 170.722656 414.226563 C 172.390625 421.382813 178.742188 426.316406 186.019531 426.316406 L 287.664063 426.316406 C 294.941406 426.316406 301.296875 421.382813 302.960938 414.226563 C 309.375 387.519531 323.683594 321.464844 323.683594 268.421875 C 323.683594 221.976563 289.453125 195.703125 300.125 160.792969 Z "/>
</g>
</svg>
