<?xml version="1.0" encoding="UTF-8"?>
<svg xmlns="http://www.w3.org/2000/svg" xmlns:xlink="http://www.w3.org/1999/xlink" width="500pt" height="500pt" viewBox="0 0 500 500" version="1.1">
<g id="surface1">
<path style=" stroke:none;fill-rule:nonzero;fill:#ACACAC;fill-opacity:1;" d="M 59.523438 39.683594 C 48.59375 39.683594 39.683594 48.59375 39.683594 59.523438 L 39.683594 138.890625 C 39.683594 149.816406 48.59375 158.730469 59.523438 158.730469 L 138.890625 158.730469 C 149.816406 158.730469 158.730469 149.816406 158.730469 138.890625 L 158.730469 59.523438 C 158.730469 48.59375 149.816406 39.683594 138.890625 39.683594 Z M 208.332031 39.683594 C 197.40625 39.683594 188.492188 48.59375 188.492188 59.523438 L 188.492188 138.890625 C 188.492188 149.816406 197.40625 158.730469 208.332031 158.730469 L 287.699219 158.730469 C 298.625 158.730469 307.539063 149.816406 307.539063 138.890625 L 307.539063 59.523438 C 307.539063 48.59375 298.625 39.683594 287.699219 39.683594 Z M 357.144531 39.683594 C 346.214844 39.683594 337.300781 48.59375 337.300781 59.523438 L 337.300781 138.890625 C 337.300781 149.816406 346.214844 158.730469 357.144531 158.730469 L 436.507813 158.730469 C 447.4375 158.730469 456.347656 149.816406 456.347656 138.890625 L 456.347656 59.523438 C 456.347656 48.59375 447.4375 39.683594 436.507813 39.683594 Z M 59.523438 188.492188 C 48.59375 188.492188 39.683594 197.40625 39.683594 208.332031 L 39.683594 287.699219 C 39.683594 298.625 48.59375 307.539063 59.523438 307.539063 L 138.890625 307.539063 C 149.816406 307.539063 158.730469 298.625 158.730469 287.699219 L 158.730469 208.332031 C 158.730469 197.40625 149.816406 188.492188 138.890625 188.492188 Z M 208.332031 188.492188 C 197.40625 188.492188 188.492188 197.40625 188.492188 208.332031 L 188.492188 287.699219 C 188.492188 298.625 197.40625 307.539063 208.332031 307.539063 L 287.699219 307.539063 C 298.625 307.539063 307.539063 298.625 307.539063 287.699219 L 307.539063 208.332031 C 307.539063 197.40625 298.625 188.492188 287.699219 188.492188 Z M 357.144531 188.492188 C 346.214844 188.492188 337.300781 197.40625 337.300781 208.332031 L 337.300781 287.699219 C 337.300781 298.625 346.214844 307.539063 357.144531 307.539063 L 436.507813 307.539063 C 447.4375 307.539063 456.347656 298.625 456.347656 287.699219 L 456.347656 208.332031 C 456.347656 197.40625 447.4375 188.492188 436.507813 188.492188 Z M 59.523438 337.300781 C 48.59375 337.300781 39.683594 346.214844 39.683594 357.144531 L 39.683594 436.507813 C 39.683594 447.4375 48.59375 456.347656 59.523438 456.347656 L 138.890625 456.347656 C 149.816406 456.347656 158.730469 447.4375 158.730469 436.507813 L 158.730469 357.144531 C 158.730469 346.214844 149.816406 337.300781 138.890625 337.300781 Z M 208.332031 337.300781 C 197.40625 337.300781 188.492188 346.214844 188.492188 357.144531 L 188.492188 436.507813 C 188.492188 447.4375 197.40625 456.347656 208.332031 456.347656 L 287.699219 456.347656 C 298.625 456.347656 307.539063 447.4375 307.539063 436.507813 L 307.539063 357.144531 C 307.539063 346.214844 298.625 337.300781 287.699219 337.300781 Z M 357.144531 337.300781 C 346.214844 337.300781 337.300781 346.214844 337.300781 357.144531 L 337.300781 436.507813 C 337.300781 447.4375 346.214844 456.347656 357.144531 456.347656 L 436.507813 456.347656 C 447.4375 456.347656 456.347656 447.4375 456.347656 436.507813 L 456.347656 357.144531 C 456.347656 346.214844 447.4375 337.300781 436.507813 337.300781 Z "/>
</g>
</svg>
