<?xml version="1.0" encoding="UTF-8"?>
<svg xmlns="http://www.w3.org/2000/svg" xmlns:xlink="http://www.w3.org/1999/xlink" width="500pt" height="500pt" viewBox="0 0 500 500" version="1.1">
<g id="surface1">
<path style=" stroke:none;fill-rule:nonzero;fill:#ACACAC;fill-opacity:1;" d="M 158.730469 19.839844 C 153.226563 19.839844 148.808594 24.257813 148.808594 29.761719 L 148.808594 138.890625 C 148.808594 139.121094 149.121094 139.277344 149.121094 139.507813 C 125.246094 153.226563 109.128906 178.921875 109.128906 208.332031 L 109.128906 297.617188 C 109.128906 313.933594 122.574219 327.382813 138.890625 327.382813 L 148.808594 327.382813 L 148.808594 466.269531 C 148.808594 471.773438 153.226563 476.191406 158.730469 476.191406 L 337.300781 476.191406 C 342.804688 476.191406 347.222656 471.773438 347.222656 466.269531 L 347.222656 327.382813 L 357.144531 327.382813 C 373.457031 327.382813 386.90625 313.933594 386.90625 297.617188 L 386.90625 208.332031 C 386.90625 178.921875 370.785156 153.226563 346.914063 139.507813 C 346.914063 139.277344 347.222656 139.121094 347.222656 138.890625 L 347.222656 29.761719 C 347.222656 24.257813 342.804688 19.839844 337.300781 19.839844 Z M 248.015625 59.523438 C 258.984375 59.523438 267.855469 68.398438 267.855469 79.363281 C 267.855469 90.332031 258.984375 99.207031 248.015625 99.207031 C 237.050781 99.207031 228.175781 90.332031 228.175781 79.363281 C 228.175781 68.398438 237.050781 59.523438 248.015625 59.523438 Z M 188.492188 148.808594 L 307.539063 148.808594 C 340.519531 148.808594 367.0625 175.355469 367.0625 208.332031 L 367.0625 297.617188 C 367.0625 303.238281 362.761719 307.539063 357.144531 307.539063 L 347.222656 307.539063 L 347.222656 218.253906 C 347.222656 201.863281 333.851563 188.492188 317.460938 188.492188 L 257.9375 188.492188 L 257.9375 240.886719 C 263.828125 244.335938 267.855469 250.613281 267.855469 257.9375 C 267.855469 268.902344 258.984375 277.777344 248.015625 277.777344 C 237.050781 277.777344 228.175781 268.902344 228.175781 257.9375 C 228.175781 250.613281 232.203125 244.335938 238.09375 240.886719 L 238.09375 188.492188 L 178.570313 188.492188 C 162.179688 188.492188 148.808594 201.863281 148.808594 218.253906 L 148.808594 307.539063 L 138.890625 307.539063 C 133.269531 307.539063 128.96875 303.238281 128.96875 297.617188 L 128.96875 208.332031 C 128.96875 175.355469 155.515625 148.808594 188.492188 148.808594 Z M 238.09375 188.492188 L 257.9375 188.492188 L 257.9375 178.570313 C 257.9375 173.070313 253.519531 168.652344 248.015625 168.652344 C 242.511719 168.652344 238.09375 173.070313 238.09375 178.570313 Z M 248.015625 337.300781 C 258.984375 337.300781 267.855469 346.175781 267.855469 357.144531 C 267.855469 368.109375 258.984375 376.984375 248.015625 376.984375 C 237.050781 376.984375 228.175781 368.109375 228.175781 357.144531 C 228.175781 346.175781 237.050781 337.300781 248.015625 337.300781 Z "/>
</g>
</svg>
