<?xml version="1.0" encoding="UTF-8"?>
<svg xmlns="http://www.w3.org/2000/svg" xmlns:xlink="http://www.w3.org/1999/xlink" width="480pt" height="480pt" viewBox="0 0 480 480" version="1.1">
<g id="surface1">
<path style=" stroke:none;fill-rule:nonzero;fill:#FFFFFF;fill-opacity:1;" d="M 205.261719 47.367188 C 118.234375 47.367188 47.367188 118.234375 47.367188 205.261719 C 47.367188 292.289063 118.234375 363.15625 205.261719 363.15625 C 243.132813 363.15625 277.859375 349.710938 305.121094 327.386719 L 399.363281 421.691406 C 403.308594 425.824219 409.230469 427.488281 414.71875 426.007813 C 420.269531 424.589844 424.589844 420.269531 426.007813 414.71875 C 427.488281 409.230469 425.824219 403.308594 421.691406 399.363281 L 327.386719 305.121094 C 349.710938 277.859375 363.15625 243.132813 363.15625 205.261719 C 363.15625 118.234375 292.289063 47.367188 205.261719 47.367188 Z M 205.261719 78.949219 C 275.207031 78.949219 331.578125 135.320313 331.578125 205.261719 C 331.578125 275.207031 275.207031 331.578125 205.261719 331.578125 C 135.320313 331.578125 78.949219 275.207031 78.949219 205.261719 C 78.949219 135.320313 135.320313 78.949219 205.261719 78.949219 Z "/>
</g>
</svg>
