<?xml version="1.0" encoding="UTF-8"?>
<svg xmlns="http://www.w3.org/2000/svg" xmlns:xlink="http://www.w3.org/1999/xlink" width="208pt" height="208pt" viewBox="0 0 208 208" version="1.1">
<g id="surface1">
<path style=" stroke:none;fill-rule:nonzero;fill:#ACACAC;fill-opacity:1;" d="M 142.0625 0 C 135.476563 -0.308594 128.644531 1.601563 123.597656 6.648438 L 7.878906 122.613281 C -1.414063 131.90625 -2.339844 148.035156 4.925781 157.820313 C 5.078125 158.066406 5.230469 158.3125 5.417969 158.5625 C 5.847656 159.113281 6.15625 159.792969 6.648438 160.285156 L 7.878906 161.023438 L 49.242188 202.386719 C 51.152344 204.726563 54.199219 205.800781 57.152344 205.125 C 60.074219 204.449219 62.382813 202.140625 63.0625 199.214844 C 63.738281 196.261719 62.660156 193.214844 60.320313 191.308594 L 25.851563 156.835938 L 25.851563 156.589844 L 30.53125 152.160156 L 65 186.628906 C 66.90625 188.96875 69.953125 190.046875 72.910156 189.367188 C 75.832031 188.691406 78.140625 186.382813 78.820313 183.457031 C 79.496094 180.503906 78.417969 177.457031 76.078125 175.550781 L 41.363281 140.832031 L 46.289063 136.402344 L 80.757813 170.871094 C 82.664063 173.210938 85.710938 174.289063 88.667969 173.609375 C 91.589844 172.933594 93.898438 170.625 94.578125 167.703125 C 95.253906 164.746094 94.175781 161.699219 91.835938 159.792969 L 57.121094 125.074219 L 62.046875 120.644531 L 96.515625 155.113281 C 98.421875 157.453125 101.46875 158.53125 104.425781 157.851563 C 107.347656 157.175781 109.65625 154.867188 110.332031 151.945313 C 111.011719 148.988281 109.933594 145.941406 107.59375 144.035156 L 72.878906 109.316406 L 77.804688 104.886719 L 112.273438 139.355469 C 114.179688 141.695313 117.226563 142.773438 120.183594 142.09375 C 123.105469 141.417969 125.414063 139.109375 126.089844 136.1875 C 126.769531 133.230469 125.691406 130.183594 123.351563 128.277344 L 88.636719 93.5625 L 93.5625 89.128906 L 128.03125 123.597656 C 129.9375 125.9375 132.984375 127.015625 135.941406 126.335938 C 138.863281 125.660156 141.171875 123.351563 141.847656 120.429688 C 142.527344 117.472656 141.449219 114.425781 139.109375 112.519531 L 104.394531 77.804688 L 109.316406 73.371094 L 143.789063 107.839844 C 145.695313 110.179688 148.742188 111.257813 151.699219 110.578125 C 154.621094 109.902344 156.929688 107.59375 157.605469 104.671875 C 158.285156 101.714844 157.207031 98.667969 154.867188 96.761719 L 120.152344 62.046875 L 125.074219 57.613281 L 159.546875 92.082031 C 161.453125 94.421875 164.5 95.5 167.453125 94.824219 C 170.378906 94.144531 172.6875 91.835938 173.363281 88.914063 C 174.042969 85.957031 172.964844 82.910156 170.625 81.003906 L 135.910156 46.289063 L 140.832031 41.855469 L 175.304688 76.324219 C 177.210938 78.664063 180.257813 79.742188 183.210938 79.066406 C 186.136719 78.386719 188.445313 76.078125 189.121094 73.15625 C 189.796875 70.203125 188.722656 67.15625 186.382813 65.246094 L 151.667969 30.53125 L 156.34375 26.097656 L 156.589844 26.097656 L 191.0625 60.566406 C 192.96875 62.90625 196.015625 63.984375 198.96875 63.308594 C 201.894531 62.628906 204.203125 60.320313 204.878906 57.398438 C 205.554688 54.445313 204.480469 51.398438 202.140625 49.488281 L 159.300781 6.648438 C 159.207031 6.585938 159.144531 6.464844 159.054688 6.402344 C 158.5625 5.816406 157.976563 5.324219 157.328125 4.925781 C 157.269531 4.894531 157.144531 4.953125 157.082031 4.925781 C 156.929688 4.832031 156.746094 4.738281 156.589844 4.679688 C 152.589844 2 147.390625 0.246094 142.0625 0 Z "/>
</g>
</svg>
