<?xml version="1.0" encoding="UTF-8"?>
<svg xmlns="http://www.w3.org/2000/svg" xmlns:xlink="http://www.w3.org/1999/xlink" width="480pt" height="480pt" viewBox="0 0 480 480" version="1.1">
<g id="surface1">
<path style=" stroke:none;fill-rule:nonzero;fill:#3F51B5;fill-opacity:1;" d="M 420 370 C 420 397.621094 397.621094 420 370 420 L 110 420 C 82.390625 420 60 397.621094 60 370 L 60 110 C 60 82.378906 82.390625 60 110 60 L 370 60 C 397.621094 60 420 82.378906 420 110 Z "/>
<path style=" stroke:none;fill-rule:nonzero;fill:#FFFFFF;fill-opacity:1;" d="M 343.679688 250 L 310 250 L 310 380 L 260 380 L 260 250 L 230 250 L 230 210 L 260 210 L 260 185.898438 C 260.019531 150.820313 274.589844 130 315.921875 130 L 350 130 L 350 170 L 327.128906 170 C 311.039063 170 310 176 310 187.230469 L 310 210 L 350 210 Z "/>
</g>
</svg>
