<?xml version="1.0" encoding="UTF-8"?>
<svg xmlns="http://www.w3.org/2000/svg" xmlns:xlink="http://www.w3.org/1999/xlink" width="480pt" height="480pt" viewBox="0 0 480 480" version="1.1">
<g id="surface1">
<path style=" stroke:none;fill-rule:nonzero;fill:#304FFE;fill-opacity:1;" d="M 320 420 L 160 420 C 105 420 60 375 60 320 L 60 160 C 60 105 105 60 160 60 L 320 60 C 375 60 420 105 420 160 L 420 320 C 420 375 375 420 320 420 Z "/>
<path style=" stroke:none;fill-rule:nonzero;fill:#304FFE;fill-opacity:0.290196;" d="M 60 160 L 60 320 C 60 375 105 420 160 420 L 320 420 C 375 420 420 375 420 320 L 420 160 C 420 150 419 141 416 132 C 360 87 288 60 210 60 C 173 60 137 66 103 78 C 77 96 60 126 60 160 Z "/>
<path style=" stroke:none;fill-rule:nonzero;fill:#6200EA;fill-opacity:1;" d="M 210 80 C 160 80 114 92 72 112 C 64 127 60 143 60 160 L 60 320 C 60 375 105 420 160 420 L 320 420 C 375 420 420 375 420 320 L 420 162 C 365 111 291 80 210 80 Z "/>
<path style=" stroke:none;fill-rule:nonzero;fill:#673AB7;fill-opacity:1;" d="M 420 190 C 367 135 293 100 210 100 C 156 100 105 115 62 141 C 61 147 60 153 60 160 L 60 320 C 60 375 105 420 160 420 L 320 420 C 375 420 420 375 420 320 Z "/>
<path style=" stroke:none;fill-rule:nonzero;fill:#8E24AA;fill-opacity:1;" d="M 420 220 C 371 159 295 120 210 120 C 154 120 103 137 60 166 L 60 320 C 60 375 105 420 160 420 L 320 420 C 375 420 420 375 420 320 Z "/>
<path style=" stroke:none;fill-rule:nonzero;fill:#C2185B;fill-opacity:1;" d="M 420 320 L 420 254 C 375 186 298 140 210 140 C 154 140 102 159 60 190 L 60 320 C 60 375 105 420 160 420 L 320 420 C 375 420 420 375 420 320 Z "/>
<path style=" stroke:none;fill-rule:nonzero;fill:#D81B60;fill-opacity:1;" d="M 420 320 L 420 296 C 384 216 304 160 210 160 C 153 160 100 181 60 216 L 60 320 C 60 375 105 420 160 420 L 320 420 C 375 420 420 375 420 320 Z "/>
<path style=" stroke:none;fill-rule:nonzero;fill:#F50057;fill-opacity:1;" d="M 416 348 C 397 252 312 180 210 180 C 151 180 98 204 60 243 L 60 320 C 60 375 105 420 160 420 L 320 420 C 365 420 404 390 416 348 Z "/>
<path style=" stroke:none;fill-rule:nonzero;fill:#FF1744;fill-opacity:1;" d="M 399 380 C 394 280 312 200 210 200 C 149 200 95 229 60 274 L 60 320 C 60 375 105 420 160 420 L 320 420 C 352 420 381 404 399 380 Z "/>
<path style=" stroke:none;fill-rule:nonzero;fill:#FF5722;fill-opacity:1;" d="M 210 220 C 145 220 89 256 60 310 L 60 320 C 60 375 105 420 160 420 L 320 420 C 342 420 363 413 379 400 C 379 397 380 393 380 390 C 380 296 304 220 210 220 Z "/>
<path style=" stroke:none;fill-rule:nonzero;fill:#FF6F00;fill-opacity:1;" d="M 210 240 C 140 240 82 287 65 352 C 78 392 116 420 160 420 L 320 420 C 334 420 346 417 358 412 C 359 405 360 397 360 390 C 360 307 293 240 210 240 Z "/>
<path style=" stroke:none;fill-rule:nonzero;fill:#FF9800;fill-opacity:1;" d="M 210 260 C 141 260 85 313 81 380 C 99 404 128 420 160 420 L 320 420 C 326 420 331 419 337 418 C 339 409 340 400 340 390 C 340 318 282 260 210 260 Z "/>
<path style=" stroke:none;fill-rule:nonzero;fill:#FFC107;fill-opacity:1;" d="M 316 420 C 319 410 320 400 320 390 C 320 329 271 280 210 280 C 149 280 100 329 100 390 C 100 393 100 397 101 400 C 118 412 138 420 160 420 Z "/>
<path style=" stroke:none;fill-rule:nonzero;fill:#FFD54F;fill-opacity:1;" d="M 210 300 C 160 300 120 340 120 390 C 120 398 121 406 123 413 C 134 418 147 420 160 420 L 295 420 C 298 411 300 401 300 390 C 300 340 260 300 210 300 Z "/>
<path style=" stroke:none;fill-rule:nonzero;fill:#FFE082;fill-opacity:1;" d="M 210 321 C 171 321 140 352 140 391 C 140 401 142 410 146 419 C 151 420 155 420 160 420 L 274 420 C 278 411 280 401 280 391 C 280 352 249 321 210 321 Z "/>
<path style=" stroke:none;fill-rule:nonzero;fill:#FFECB3;fill-opacity:1;" d="M 210 341 C 182 341 160 363 160 391 C 160 402 164 412 170 420 L 250 420 C 256 412 260 402 260 391 C 260 363 238 341 210 341 Z "/>
<path style=" stroke:none;fill-rule:nonzero;fill:#FFFFFF;fill-opacity:1;" d="M 300 380 L 180 380 C 136 380 100 344 100 300 L 100 180 C 100 136 136 100 180 100 L 300 100 C 344 100 380 136 380 180 L 380 300 C 380 344 344 380 300 380 Z M 180 120 C 147 120 120 147 120 180 L 120 300 C 120 333 147 360 180 360 L 300 360 C 333 360 360 333 360 300 L 360 180 C 360 147 333 120 300 120 Z "/>
<path style=" stroke:none;fill-rule:nonzero;fill:#FFFFFF;fill-opacity:1;" d="M 240 310 C 201 310 170 279 170 240 C 170 201 201 170 240 170 C 279 170 310 201 310 240 C 310 279 279 310 240 310 Z M 240 190 C 212 190 190 212 190 240 C 190 268 212 290 240 290 C 268 290 290 268 290 240 C 290 212 268 190 240 190 Z "/>
<path style=" stroke:none;fill-rule:nonzero;fill:#FFFFFF;fill-opacity:1;" d="M 320 160 C 320 166 316 170 310 170 C 304 170 300 166 300 160 C 300 154 304 150 310 150 C 316 150 320 154 320 160 Z "/>
</g>
</svg>
