<?xml version="1.0" encoding="UTF-8"?>
<svg xmlns="http://www.w3.org/2000/svg" xmlns:xlink="http://www.w3.org/1999/xlink" width="512pt" height="512pt" viewBox="0 0 512 512" version="1.1">
<g id="surface1">
<path style=" stroke:none;fill-rule:nonzero;fill:#FFFFFF;fill-opacity:1;" d="M 256 64 C 204.375 64 159.5625 100.125 147.5 149.5 C 127.5625 157.25 111 173 102.5 192.5 C 46.5625 188.375 0 232.875 0 288 C 0 340.9375 43.0625 384 96 384 L 128 384 L 144 352 L 96 352 C 60.6875 352 32 323.3125 32 288 C 32 252.6875 60.6875 224 96 224 C 100.4375 224 104.9375 224.375 110 225.5 L 126 229 L 129 213.5 C 132.9375 195.8125 147.3125 181.75 165 177.5 L 175.5 175 L 177 164.5 C 182.75 125.5625 216.6875 96 256 96 C 286.3125 96 313.8125 112.875 327.5 140 L 333.5 152.5 L 347 148 C 354.5 145.375 361.3125 144 368 144 C 403.3125 144 432 172.6875 432 208 C 432 208.625 432.0625 209.4375 432 210 C 431.875 211.0625 431.625 211.875 431.5 213 L 430.5 224.5 L 441 229 C 464.625 239.0625 480 262.3125 480 288 C 480 323.3125 451.3125 352 416 352 L 384 352 L 400 384 L 416 384 C 468.9375 384 512 340.9375 512 288 C 512 253.375 493.5 222 464 205 C 462.3125 153.5 419.875 112 368 112 C 361.75 112 355.3125 112.625 349 114 C 328.375 82.875 293.9375 64 256 64 Z M 288 224 C 288 224 256 270.3125 256 288 C 256 305.6875 270.3125 320 288 320 C 305.6875 320 320 305.6875 320 288 C 320 270.3125 288 224 288 224 Z M 208 304 C 208 304 176 350.3125 176 368 C 176 385.6875 190.3125 400 208 400 C 225.6875 400 240 385.6875 240 368 C 240 350.3125 208 304 208 304 Z M 336 352 C 336 352 304 398.3125 304 416 C 304 433.6875 318.3125 448 336 448 C 353.6875 448 368 433.6875 368 416 C 368 398.3125 336 352 336 352 Z "/>
</g>
</svg>
