<?xml version="1.0" encoding="UTF-8"?>
<svg xmlns="http://www.w3.org/2000/svg" xmlns:xlink="http://www.w3.org/1999/xlink" width="500pt" height="500pt" viewBox="0 0 500 500" version="1.1">
<g id="surface1">
<path style=" stroke:none;fill-rule:nonzero;fill:#ACACAC;fill-opacity:1;" d="M 138.890625 0 C 101.726563 0 80.566406 28.714844 73.785156 39.683594 L 18.601563 39.683594 L 17.980469 48.984375 C 16.933594 65.144531 15.269531 86.457031 13.332031 110.988281 C 7.75 181.363281 0 277.777344 0 353.113281 C 0 365.046875 3.71875 409.574219 4.03125 413.257813 L 0 485.492188 C -0.15625 488.203125 0.929688 490.957031 2.789063 492.929688 C 4.648438 494.90625 7.207031 496.03125 9.921875 496.03125 L 46.503906 496.03125 C 51.96875 496.03125 56.421875 491.613281 56.421875 486.109375 L 56.421875 484.25 L 65.414063 493.242188 C 67.273438 495.101563 69.910156 496.03125 72.542969 496.03125 L 97.347656 496.03125 C 102.808594 496.03125 107.265625 491.613281 107.265625 486.109375 L 107.265625 485.492188 L 116.566406 493.550781 C 118.390625 495.140625 120.675781 496.03125 123.078125 496.03125 L 138.890625 496.03125 C 144.351563 496.03125 148.808594 491.613281 148.808594 486.109375 L 148.808594 472.46875 C 167.488281 482.082031 200.660156 496.03125 234.996094 496.03125 C 236.699219 496.03125 238.484375 495.605469 239.957031 494.792969 L 264.136719 481.460938 L 267.546875 489.832031 C 269.097656 493.511719 272.855469 496.03125 276.847656 496.03125 L 300.71875 496.03125 C 302.695313 496.03125 304.671875 495.296875 306.300781 494.171875 L 327.070313 480.222656 L 331.101563 490.140625 C 332.652344 493.785156 336.410156 496.03125 340.402344 496.03125 C 350.359375 496.03125 355.710938 496.148438 365.203125 495.101563 C 366.984375 494.90625 368.730469 493.976563 370.164063 492.929688 L 385.976563 481.152344 L 387.214844 485.800781 C 388.453125 490.566406 393.105469 493.433594 398.066406 492.929688 C 407.25 491.886719 415.503906 491.070313 424.105469 488.902344 C 425.578125 488.550781 426.976563 487.699219 428.136719 486.730469 L 439.917969 476.5 C 440.617188 478.4375 441.933594 480.257813 443.636719 481.460938 C 445.964844 483.089844 448.984375 483.707031 451.699219 483.011719 C 477.3125 476.847656 489.910156 470.570313 490.453125 470.300781 C 493.824219 468.632813 496.03125 465.070313 496.03125 461.308594 L 496.03125 412.636719 C 496.03125 371.210938 482.972656 339.199219 457.277344 317.148438 C 411.550781 277.933594 345.363281 286.535156 337.921875 287.699219 C 323.777344 289.828125 306.453125 283.589844 291.730469 270.957031 C 270.296875 252.550781 257.9375 224.996094 257.9375 195.3125 L 257.9375 39.683594 L 203.992188 39.683594 C 197.210938 28.714844 176.050781 0 138.890625 0 Z M 138.890625 19.839844 C 156.40625 19.839844 169.851563 30.304688 178.570313 39.683594 L 99.207031 39.683594 C 107.925781 30.304688 121.371094 19.839844 138.890625 19.839844 Z M 33.171875 109.128906 L 238.09375 109.128906 L 238.09375 148.808594 L 30.070313 148.808594 C 31.039063 136.214844 31.972656 123.96875 32.863281 112.539063 C 32.941406 111.335938 33.054688 110.289063 33.171875 109.128906 Z M 242.746094 228.175781 C 248.90625 250.730469 261.074219 271.035156 278.707031 286.148438 C 298.046875 302.773438 320.636719 310.640625 340.710938 307.539063 C 364.273438 303.9375 412.558594 304.867188 444.257813 332.03125 C 463.945313 348.925781 474.5625 383.6875 475.878906 415.738281 C 461.582031 420.503906 419.921875 431.546875 339.160156 431.546875 C 245.457031 431.546875 64.25 417.75 23.25 414.496094 C 22.554688 405.738281 21.199219 380.859375 20.460938 368.921875 C 53.828125 373.960938 151.171875 386.90625 267.855469 386.90625 C 273.359375 386.90625 277.777344 382.488281 277.777344 376.984375 C 277.777344 330.441406 246.890625 315.058594 221.972656 302.578125 C 200.660156 291.921875 188.492188 284.910156 188.492188 267.855469 C 188.492188 257.511719 191.554688 249.332031 198.101563 243.054688 C 210.851563 230.769531 232.980469 228.5625 242.746094 228.175781 Z "/>
</g>
</svg>
