<?xml version="1.0" encoding="UTF-8"?>
<svg xmlns="http://www.w3.org/2000/svg" xmlns:xlink="http://www.w3.org/1999/xlink" width="480pt" height="480pt" viewBox="0 0 480 480" version="1.1">
<g id="surface1">
<path style=" stroke:none;fill-rule:nonzero;fill:#FFFFFF;fill-opacity:1;" d="M 48.679688 433.03125 L 75.621094 334.679688 C 59 305.898438 50.261719 273.238281 50.269531 239.789063 C 50.320313 135.140625 135.480469 50 240.140625 50 C 290.929688 50.019531 338.589844 69.789063 374.441406 105.660156 C 410.28125 141.539063 430.019531 189.21875 430 239.941406 C 429.960938 344.589844 344.78125 429.738281 240.140625 429.738281 C 240.128906 429.738281 240.140625 429.738281 240.140625 429.738281 L 240.058594 429.738281 C 208.289063 429.730469 177.058594 421.761719 149.328125 406.628906 Z "/>
<path style=" stroke:none;fill-rule:nonzero;fill:#FFFFFF;fill-opacity:1;" d="M 48.679688 438.03125 C 47.359375 438.03125 46.078125 437.511719 45.128906 436.550781 C 43.878906 435.28125 43.390625 433.429688 43.859375 431.71875 L 70.25 335.359375 C 53.890625 306.300781 45.261719 273.300781 45.28125 239.800781 C 45.320313 132.378906 132.730469 45 240.140625 45 C 292.238281 45.019531 341.191406 65.308594 377.980469 102.128906 C 414.769531 138.960938 435.019531 187.898438 435 239.941406 C 434.960938 347.351563 347.539063 434.738281 240.140625 434.738281 C 208.25 434.730469 176.699219 426.859375 148.699219 411.96875 L 49.949219 437.859375 C 49.53125 437.980469 49.109375 438.03125 48.679688 438.03125 Z "/>
<path style=" stroke:none;fill-rule:nonzero;fill:#CFD8DC;fill-opacity:1;" d="M 240.140625 50 C 290.929688 50.019531 338.589844 69.789063 374.441406 105.660156 C 410.28125 141.539063 430.019531 189.21875 430 239.941406 C 429.960938 344.589844 344.78125 429.738281 240.140625 429.738281 L 240.058594 429.738281 C 208.289063 429.730469 177.058594 421.761719 149.328125 406.628906 L 48.679688 433.03125 L 75.621094 334.679688 C 59 305.898438 50.261719 273.238281 50.269531 239.789063 C 50.320313 135.140625 135.480469 50 240.140625 50 M 240.140625 429.738281 L 240.140625 429.738281 M 240.140625 429.738281 L 240.140625 429.738281 M 240.140625 40 C 129.980469 40 40.320313 129.621094 40.269531 239.789063 C 40.261719 273.460938 48.761719 306.640625 64.878906 336.011719 L 39.03125 430.398438 C 38.089844 433.851563 39.050781 437.53125 41.570313 440.070313 C 43.46875 441.988281 46.039063 443.039063 48.679688 443.039063 C 49.53125 443.039063 50.378906 442.929688 51.21875 442.710938 L 148.089844 417.308594 C 176.371094 431.988281 208.070313 439.738281 240.058594 439.75 C 350.300781 439.75 439.960938 350.121094 440.011719 239.949219 C 440.03125 186.558594 419.261719 136.359375 381.53125 98.601563 C 343.78125 60.828125 293.570313 40.019531 240.140625 40 Z "/>
<path style=" stroke:none;fill-rule:nonzero;fill:#40C351;fill-opacity:1;" d="M 351.761719 128.320313 C 321.960938 98.5 282.351563 82.070313 240.191406 82.058594 C 153.148438 82.058594 82.359375 152.820313 82.320313 239.800781 C 82.308594 269.609375 90.648438 298.628906 106.449219 323.761719 L 110.210938 329.730469 L 94.261719 387.941406 L 153.988281 372.28125 L 159.761719 375.699219 C 183.980469 390.078125 211.761719 397.679688 240.078125 397.691406 L 240.140625 397.691406 C 327.121094 397.691406 397.910156 326.921875 397.941406 239.929688 C 397.949219 197.78125 381.558594 158.140625 351.761719 128.320313 Z "/>
<path style=" stroke:none;fill-rule:evenodd;fill:#FFFFFF;fill-opacity:1;" d="M 192.679688 160.449219 C 189.128906 152.550781 185.390625 152.390625 182 152.25 C 179.230469 152.128906 176.070313 152.140625 172.910156 152.140625 C 169.75 152.140625 164.609375 153.328125 160.261719 158.078125 C 155.910156 162.828125 143.648438 174.300781 143.648438 197.640625 C 143.648438 220.980469 160.648438 243.539063 163.019531 246.699219 C 165.390625 249.859375 195.839844 299.289063 244.058594 318.308594 C 284.128906 334.109375 292.289063 330.96875 300.988281 330.179688 C 309.691406 329.390625 329.058594 318.710938 333.011719 307.628906 C 336.960938 296.550781 336.960938 287.058594 335.78125 285.078125 C 334.589844 283.101563 331.429688 281.921875 326.691406 279.539063 C 321.949219 277.160156 298.621094 265.691406 294.269531 264.109375 C 289.921875 262.53125 286.761719 261.738281 283.589844 266.488281 C 280.429688 271.230469 271.339844 281.921875 268.570313 285.078125 C 265.800781 288.25 263.03125 288.648438 258.289063 286.269531 C 253.550781 283.890625 238.269531 278.890625 220.140625 262.730469 C 206.039063 250.160156 196.519531 234.628906 193.75 229.878906 C 190.980469 225.140625 193.449219 222.570313 195.828125 220.199219 C 197.960938 218.070313 200.570313 214.660156 202.949219 211.890625 C 205.320313 209.121094 206.109375 207.140625 207.691406 203.980469 C 209.269531 200.808594 208.480469 198.039063 207.289063 195.671875 C 206.121094 193.289063 196.898438 169.828125 192.679688 160.449219 Z "/>
</g>
</svg>
