<?xml version="1.0" encoding="UTF-8"?>
<svg xmlns="http://www.w3.org/2000/svg" xmlns:xlink="http://www.w3.org/1999/xlink" width="500pt" height="500pt" viewBox="0 0 500 500" version="1.1">
<g id="surface1">
<path style=" stroke:none;fill-rule:nonzero;fill:#ACACAC;fill-opacity:1;" d="M 419.765625 26.972656 L 413.875 32.242188 C 377.683594 65.492188 347.492188 130.480469 323.660156 192.523438 C 299.828125 254.566406 282.855469 313.855469 277.15625 332.652344 C 275.570313 337.84375 269.792969 347.144531 260.417969 354.351563 C 251.039063 361.5625 238.210938 367.0625 221.972656 367.0625 C 178.84375 367.0625 157.488281 329.859375 157.488281 329.859375 L 152.839844 322.421875 L 145.089844 325.832031 C 145.089844 325.832031 119.125 336.914063 90.214844 350.632813 C 61.304688 364.351563 30.1875 379.386719 15.5 392.796875 C 1.511719 405.582031 0 421.160156 0 430.308594 L 0 438.679688 L 8.058594 440.226563 C 8.058594 440.226563 137.339844 466.269531 238.09375 466.269531 C 284.792969 466.269531 314.476563 444.722656 332.339844 416.355469 C 350.207031 387.988281 357.917969 353.578125 365.824219 325.210938 C 373.921875 296.109375 382.371094 275.878906 390.625 263.828125 C 398.878906 251.773438 405.3125 248.015625 413.875 248.015625 C 419.804688 248.015625 423.371094 248.558594 426.898438 251.117188 C 430.421875 253.671875 434.996094 259.449219 439.296875 273.128906 C 447.902344 300.527344 454.179688 357.179688 454.179688 466.269531 L 475.261719 466.269531 C 475.261719 232.398438 496.03125 213.527344 496.03125 159.96875 C 496.03125 80.257813 426.277344 31.621094 426.277344 31.621094 Z "/>
</g>
</svg>
