<?xml version="1.0" encoding="UTF-8"?>
<svg xmlns="http://www.w3.org/2000/svg" xmlns:xlink="http://www.w3.org/1999/xlink" width="96pt" height="96pt" viewBox="0 0 96 96" version="1.1">
<g id="surface1">
<path style=" stroke:none;fill-rule:nonzero;fill:#FFFFFF;fill-opacity:1;" d="M 48 8 C 25.90625 8 8 25.90625 8 48 C 8 70.09375 25.90625 88 48 88 C 70.09375 88 88 70.09375 88 48 C 88 25.90625 70.09375 8 48 8 Z M 48 19 C 55.1875 19 61 24.8125 61 32 C 61 39.1875 55.1875 45 48 45 C 40.8125 45 35 39.1875 35 32 C 35 24.8125 40.8125 19 48 19 Z M 48 80 C 38.25 80 29.515625 75.640625 23.640625 68.75 C 22.125 66.96875 22.46875 64.28125 24.34375 62.875 C 30.40625 58.296875 41.46875 56 48 56 C 54.53125 56 65.59375 58.296875 71.65625 62.875 C 73.546875 64.28125 73.875 66.96875 72.359375 68.75 C 66.484375 75.640625 57.75 80 48 80 Z "/>
</g>
</svg>
