<?xml version="1.0" encoding="UTF-8"?>
<svg xmlns="http://www.w3.org/2000/svg" xmlns:xlink="http://www.w3.org/1999/xlink" width="480pt" height="480pt" viewBox="0 0 480 480" version="1.1">
<g id="surface1">
<path style=" stroke:none;fill-rule:nonzero;fill:#000000;fill-opacity:1;" d="M 240 40 C 129.53125 40 40 129.53125 40 240 C 40 350.46875 129.53125 440 240 440 C 350.46875 440 440 350.46875 440 240 C 440 129.53125 350.46875 40 240 40 Z M 240 95 C 275.9375 95 305 124.0625 305 160 C 305 195.9375 275.9375 225 240 225 C 204.0625 225 175 195.9375 175 160 C 175 124.0625 204.0625 95 240 95 Z M 240 400 C 184.609375 400 135.78125 371.875 107.109375 329.0625 C 129.53125 296.484375 200.9375 280 240 280 C 279.0625 280 350.46875 296.484375 372.890625 329.0625 C 344.21875 371.875 295.390625 400 240 400 Z "/>
</g>
</svg>
