<?xml version="1.0" encoding="UTF-8"?>
<svg xmlns="http://www.w3.org/2000/svg" xmlns:xlink="http://www.w3.org/1999/xlink" width="480pt" height="480pt" viewBox="0 0 480 480" version="1.1">
<g id="surface1">
<path style=" stroke:none;fill-rule:nonzero;fill:#black;fill-opacity:0.5;" d="M 236.84375 78.949219 C 96.03125 78.949219 5.058594 224.382813 3.453125 227.035156 C 1.234375 229.8125 0 233.265625 0 236.84375 C 0 239.925781 0.863281 242.886719 2.589844 245.476563 C 2.589844 245.476563 2.589844 245.539063 2.589844 245.539063 C 2.898438 246.09375 79.253906 394.738281 236.84375 394.738281 C 393.75 394.738281 469.984375 247.574219 470.96875 245.722656 C 471.03125 245.660156 471.09375 245.539063 471.15625 245.476563 C 472.820313 242.886719 473.683594 239.925781 473.683594 236.84375 C 473.683594 233.265625 472.511719 229.871094 470.292969 227.035156 C 470.292969 227.035156 470.292969 227.035156 470.230469 227.035156 C 468.625 224.382813 377.652344 78.949219 236.84375 78.949219 Z M 236.84375 126.316406 C 297.902344 126.316406 347.367188 175.78125 347.367188 236.84375 C 347.367188 297.902344 297.902344 347.367188 236.84375 347.367188 C 175.78125 347.367188 126.316406 297.902344 126.316406 236.84375 C 126.316406 175.78125 175.78125 126.316406 236.84375 126.316406 Z M 236.84375 189.472656 C 210.691406 189.472656 189.472656 210.691406 189.472656 236.84375 C 189.472656 262.992188 210.691406 284.210938 236.84375 284.210938 C 262.992188 284.210938 284.210938 262.992188 284.210938 236.84375 C 284.210938 210.691406 262.992188 189.472656 236.84375 189.472656 Z "/>
</g>
</svg>
