<?xml version="1.0" encoding="UTF-8"?>
<svg xmlns="http://www.w3.org/2000/svg" xmlns:xlink="http://www.w3.org/1999/xlink" width="500pt" height="500pt" viewBox="0 0 500 500" version="1.1">
<g id="surface1">
<path style=" stroke:none;fill-rule:nonzero;fill:#FFFFFF;fill-opacity:1;" d="M 208.332031 29.761719 C 115.09375 29.761719 39.683594 105.175781 39.683594 198.414063 C 39.683594 291.652344 115.09375 367.0625 208.332031 367.0625 C 241.621094 367.0625 272.429688 357.296875 298.550781 340.710938 L 420.386719 462.550781 L 462.550781 420.386719 L 342.261719 300.410156 C 363.886719 272.042969 376.984375 236.894531 376.984375 198.414063 C 376.984375 105.175781 301.570313 29.761719 208.332031 29.761719 Z M 208.332031 69.445313 C 279.753906 69.445313 337.300781 126.992188 337.300781 198.414063 C 337.300781 269.832031 279.753906 327.382813 208.332031 327.382813 C 136.914063 327.382813 79.363281 269.832031 79.363281 198.414063 C 79.363281 126.992188 136.914063 69.445313 208.332031 69.445313 Z "/>
</g>
</svg>
