<?xml version="1.0" encoding="UTF-8"?>
<svg xmlns="http://www.w3.org/2000/svg" xmlns:xlink="http://www.w3.org/1999/xlink" width="500pt" height="500pt" viewBox="0 0 500 500" version="1.1">
<g id="surface1">
<path style=" stroke:none;fill-rule:nonzero;fill:#7540EE;fill-opacity:1;" d="M 248.015625 9.921875 C 160.511719 9.921875 89.285156 81.148438 89.285156 168.652344 C 89.285156 308.664063 234.414063 475.648438 240.574219 482.699219 C 242.472656 484.871094 245.148438 486.109375 248.015625 486.109375 C 251.078125 485.917969 253.558594 484.871094 255.457031 482.699219 C 261.617188 475.53125 406.746094 305.679688 406.746094 168.652344 C 406.746094 81.148438 335.519531 9.921875 248.015625 9.921875 Z M 248.015625 119.046875 C 280.878906 119.046875 307.539063 145.710938 307.539063 178.570313 C 307.539063 211.433594 280.878906 238.09375 248.015625 238.09375 C 215.152344 238.09375 188.492188 211.433594 188.492188 178.570313 C 188.492188 145.710938 215.152344 119.046875 248.015625 119.046875 Z "/>
</g>
</svg>
