<?xml version="1.0" encoding="UTF-8"?>
<svg xmlns="http://www.w3.org/2000/svg" xmlns:xlink="http://www.w3.org/1999/xlink" width="500pt" height="500pt" viewBox="0 0 500 500" version="1.1">
<g id="surface1">
<path style=" stroke:none;fill-rule:nonzero;fill:#FFFFFF;fill-opacity:1;" d="M 445.1875 39.683594 C 444.21875 39.835938 443.289063 40.148438 442.398438 40.613281 L 45.574219 211.125 C 42.046875 212.671875 39.761719 216.160156 39.683594 219.996094 C 39.605469 223.875 41.8125 227.398438 45.261719 229.105469 L 193.140625 302.890625 L 266.925781 450.769531 C 268.632813 454.21875 272.160156 456.425781 276.035156 456.347656 C 279.871094 456.273438 283.359375 453.984375 284.910156 450.457031 L 455.417969 53.632813 C 456.890625 50.378906 456.503906 46.542969 454.371094 43.675781 C 452.28125 40.769531 448.753906 39.257813 445.1875 39.683594 Z M 403.027344 79.054688 L 198.414063 283.667969 L 73.164063 221.042969 Z M 416.976563 93.007813 L 274.988281 422.867188 L 212.363281 297.617188 Z "/>
</g>
</svg>
