<?xml version="1.0" encoding="UTF-8"?>
<svg xmlns="http://www.w3.org/2000/svg" xmlns:xlink="http://www.w3.org/1999/xlink" width="512pt" height="512pt" viewBox="0 0 512 512" version="1.1">
<g id="surface1">
<path style=" stroke:none;fill-rule:nonzero;fill:#000000;fill-opacity:1;" d="M 211 48 L 208.5 61 L 199 108.5 C 183.75 114.5 170 122.9375 157.5 133 L 111 117 L 98.5 113 L 92 124.5 L 60 179.5 L 53.5 191 L 63 199.5 L 99 231 C 97.6875 239.1875 96 247.375 96 256 C 96 264.625 97.6875 272.8125 99 281 L 63 312.5 L 53.5 321 L 60 332.5 L 92 387.5 L 98.5 399 L 111 395 L 157.5 379 C 170 389.0625 183.75 397.5 199 403.5 L 208.5 451 L 211 464 L 301 464 L 303.5 451 L 313 403.5 C 328.25 397.5 342 389.0625 354.5 379 L 401 395 L 413.5 399 L 420 387.5 L 452 332.5 L 458.5 321 L 449 312.5 L 413 281 C 414.3125 272.8125 416 264.625 416 256 C 416 247.375 414.3125 239.1875 413 231 L 449 199.5 L 458.5 191 L 452 179.5 L 420 124.5 L 413.5 113 L 401 117 L 354.5 133 C 342 122.9375 328.25 114.5 313 108.5 L 303.5 61 L 301 48 Z M 237 80 L 275 80 L 283 121.5 L 285 131 L 294 134 C 312.1875 139.6875 328.6875 149.3125 342.5 162 L 349.5 168.5 L 358.5 165.5 L 399 151.5 L 418 184 L 386 212.5 L 378.5 218.5 L 381 228 C 383.0625 237.125 384 246.4375 384 256 C 384 265.5625 383.0625 274.875 381 284 L 379 293.5 L 386 299.5 L 418 328 L 399 360.5 L 358.5 346.5 L 349.5 343.5 L 342.5 350 C 328.6875 362.6875 312.1875 372.3125 294 378 L 285 381 L 283 390.5 L 275 432 L 237 432 L 229 390.5 L 227 381 L 218 378 C 199.8125 372.3125 183.3125 362.6875 169.5 350 L 162.5 343.5 L 153.5 346.5 L 113 360.5 L 94 328 L 126 299.5 L 133.5 293.5 L 131 284 C 128.9375 274.875 128 265.5625 128 256 C 128 246.4375 128.9375 237.125 131 228 L 133.5 218.5 L 126 212.5 L 94 184 L 113 151.5 L 153.5 165.5 L 162.5 168.5 L 169.5 162 C 183.3125 149.3125 199.8125 139.6875 218 134 L 227 131 L 229 121.5 Z M 256 176 C 212 176 176 212 176 256 C 176 300 212 336 256 336 C 300 336 336 300 336 256 C 336 212 300 176 256 176 Z M 256 208 C 282.6875 208 304 229.3125 304 256 C 304 282.6875 282.6875 304 256 304 C 229.3125 304 208 282.6875 208 256 C 208 229.3125 229.3125 208 256 208 Z "/>
</g>
</svg>
