<?xml version="1.0" encoding="UTF-8"?>
<svg xmlns="http://www.w3.org/2000/svg" xmlns:xlink="http://www.w3.org/1999/xlink" width="500pt" height="500pt" viewBox="0 0 500 500" version="1.1">
<g id="surface1">
<path style=" stroke:none;fill-rule:nonzero;fill:#FFFFFF;fill-opacity:1;" d="M 248.015625 19.839844 C 122.109375 19.839844 19.839844 122.109375 19.839844 248.015625 C 19.839844 373.921875 122.109375 476.191406 248.015625 476.191406 C 373.921875 476.191406 476.191406 373.921875 476.191406 248.015625 C 476.191406 122.109375 373.921875 19.839844 248.015625 19.839844 Z M 248.015625 39.683594 C 363.1875 39.683594 456.347656 132.84375 456.347656 248.015625 C 456.347656 363.1875 363.1875 456.347656 248.015625 456.347656 C 132.84375 456.347656 39.683594 363.1875 39.683594 248.015625 C 39.683594 132.84375 132.84375 39.683594 248.015625 39.683594 Z M 247.859375 168.496094 C 242.398438 168.613281 238.019531 173.105469 238.09375 178.570313 L 238.09375 238.09375 L 178.570313 238.09375 C 175.007813 238.054688 171.671875 239.917969 169.851563 243.015625 C 168.070313 246.117188 168.070313 249.914063 169.851563 253.015625 C 171.671875 256.113281 175.007813 257.976563 178.570313 257.9375 L 238.09375 257.9375 L 238.09375 317.460938 C 238.054688 321.027344 239.917969 324.359375 243.015625 326.179688 C 246.117188 327.960938 249.914063 327.960938 253.015625 326.179688 C 256.113281 324.359375 257.976563 321.027344 257.9375 317.460938 L 257.9375 257.9375 L 317.460938 257.9375 C 321.027344 257.976563 324.359375 256.113281 326.179688 253.015625 C 327.960938 249.914063 327.960938 246.117188 326.179688 243.015625 C 324.359375 239.917969 321.027344 238.054688 317.460938 238.09375 L 257.9375 238.09375 L 257.9375 178.570313 C 257.976563 175.898438 256.929688 173.300781 255.03125 171.402344 C 253.132813 169.503906 250.535156 168.457031 247.859375 168.496094 Z "/>
</g>
</svg>
