<?xml version="1.0" encoding="UTF-8"?>
<svg xmlns="http://www.w3.org/2000/svg" xmlns:xlink="http://www.w3.org/1999/xlink" width="96pt" height="96pt" viewBox="0 0 96 96" version="1.1">
<g id="surface1">
<path style=" stroke:none;fill-rule:nonzero;fill:#FFFFFF;fill-opacity:1;" d="M 45 12 C 42.46875 12 40.195313 13.078125 38.53125 14.765625 L 18.890625 19.453125 C 14.132813 20.578125 11.039063 25.40625 12.28125 30.140625 L 24.890625 77.554688 C 26.132813 82.289063 31.054688 85.101563 35.8125 83.976563 L 40.640625 82.804688 C 41.953125 83.554688 43.429688 84 45 84 L 75 84 C 79.945313 84 84 79.945313 84 75 L 84 21 C 84 16.054688 79.945313 12 75 12 Z M 45 18 L 75 18 C 76.6875 18 78 19.3125 78 21 L 78 75 C 78 76.6875 76.6875 78 75 78 L 45 78 C 43.3125 78 42 76.6875 42 75 L 42 21 C 42 19.3125 43.3125 18 45 18 Z M 36 21.539063 L 36 75 C 36 75.914063 36.1875 76.804688 36.445313 77.648438 L 34.40625 78.117188 C 32.71875 78.539063 31.078125 77.554688 30.703125 76.054688 L 30.703125 76.03125 L 18.09375 28.640625 C 17.695313 27.140625 18.585938 25.6875 20.296875 25.265625 Z "/>
</g>
</svg>
