<?xml version="1.0" encoding="UTF-8"?>
<svg xmlns="http://www.w3.org/2000/svg" xmlns:xlink="http://www.w3.org/1999/xlink" width="500pt" height="500pt" viewBox="0 0 500 500" version="1.1">
<g id="surface1">
<path style=" stroke:none;fill-rule:nonzero;fill:#000000;fill-opacity:1;" d="M 248.015625 0 C 226.199219 0 208.332031 17.863281 208.332031 39.683594 C 208.332031 44.796875 209.339844 49.757813 211.125 54.253906 C 155.320313 68.746094 119.046875 117.226563 119.046875 178.570313 C 119.046875 256.269531 99.980469 291.652344 81.84375 311.570313 C 72.777344 321.53125 63.824219 327.574219 56.113281 333.269531 C 52.238281 336.101563 48.710938 338.929688 45.574219 342.570313 C 42.433594 346.214844 39.683594 351.40625 39.683594 357.144531 C 39.683594 370.785156 48.054688 382.371094 59.832031 390.003906 C 71.613281 397.640625 87.078125 402.5625 105.714844 406.4375 C 129.898438 411.433594 159.738281 414.070313 192.523438 415.425781 C 190.042969 422.015625 188.492188 429.105469 188.492188 436.507813 C 188.492188 469.253906 215.269531 496.03125 248.015625 496.03125 C 280.761719 496.03125 307.539063 469.253906 307.539063 436.507813 C 307.539063 429.066406 306.027344 421.976563 303.507813 415.425781 C 336.292969 414.070313 366.132813 411.433594 390.316406 406.4375 C 408.953125 402.5625 424.417969 397.640625 436.199219 390.003906 C 447.980469 382.371094 456.347656 370.785156 456.347656 357.144531 C 456.347656 351.40625 453.597656 346.214844 450.457031 342.570313 C 447.320313 338.929688 443.792969 336.101563 439.917969 333.269531 C 432.207031 327.574219 423.253906 321.53125 414.1875 311.570313 C 396.050781 291.652344 376.984375 256.269531 376.984375 178.570313 C 376.984375 117.265625 340.632813 68.824219 284.910156 54.253906 C 286.691406 49.757813 287.699219 44.796875 287.699219 39.683594 C 287.699219 17.863281 269.832031 0 248.015625 0 Z M 248.015625 19.839844 C 259.097656 19.839844 267.855469 28.597656 267.855469 39.683594 C 267.855469 50.765625 259.097656 59.523438 248.015625 59.523438 C 236.933594 59.523438 228.175781 50.765625 228.175781 39.683594 C 228.175781 28.597656 236.933594 19.839844 248.015625 19.839844 Z M 271.265625 71.304688 C 324.164063 80.722656 357.144531 121.605469 357.144531 178.570313 C 357.144531 259.601563 377.757813 301.222656 399.304688 324.902344 C 410.078125 336.71875 420.96875 344.121094 428.136719 349.390625 C 431.703125 352.027344 434.375 354.238281 435.578125 355.59375 C 436.777344 356.949219 436.507813 356.832031 436.507813 357.144531 C 436.507813 363.34375 433.640625 367.878906 425.347656 373.265625 C 417.054688 378.652344 403.566406 383.648438 386.285156 387.214844 C 351.71875 394.382813 302.5 396.824219 248.015625 396.824219 C 193.53125 396.824219 144.3125 394.382813 109.746094 387.214844 C 92.464844 383.648438 78.976563 378.652344 70.683594 373.265625 C 62.390625 367.878906 59.523438 363.34375 59.523438 357.144531 C 59.523438 356.832031 59.253906 356.949219 60.453125 355.59375 C 61.65625 354.238281 64.328125 352.027344 67.894531 349.390625 C 75.0625 344.121094 85.953125 336.71875 96.726563 324.902344 C 118.273438 301.222656 138.890625 259.601563 138.890625 178.570313 C 138.890625 121.644531 171.90625 81.070313 224.765625 71.613281 C 231.351563 76.457031 239.296875 79.363281 248.015625 79.363281 C 256.8125 79.363281 264.679688 76.226563 271.265625 71.304688 Z M 213.914063 416.046875 C 225.035156 416.277344 236.351563 416.667969 248.015625 416.667969 C 259.679688 416.667969 270.996094 416.277344 282.117188 416.046875 C 285.644531 422.015625 287.699219 429.066406 287.699219 436.507813 C 287.699219 458.558594 270.066406 476.191406 248.015625 476.191406 C 225.964844 476.191406 208.332031 458.558594 208.332031 436.507813 C 208.332031 428.988281 210.308594 422.015625 213.914063 416.046875 Z "/>
</g>
</svg>
