<?xml version="1.0" encoding="UTF-8"?>
<svg xmlns="http://www.w3.org/2000/svg" xmlns:xlink="http://www.w3.org/1999/xlink" width="480pt" height="480pt" viewBox="0 0 480 480" version="1.1">
<g id="surface1">
<path style=" stroke:none;fill-rule:nonzero;fill:#FFBA57;fill-opacity:1;" d="M 299.941406 260 C 322.589844 242.851563 340 230 360 230 C 380 230 401.96875 241.96875 430 270 C 429.800781 284.078125 429.929688 296.671875 430 310 C 430.039063 318.128906 430.070313 327.320313 429.96875 335 C 429.128906 395.230469 420.851563 440 360 440 C 340.078125 410 349.738281 400 329.820313 400 C 309.898438 400 306.828125 417.539063 250.140625 420 C 248.449219 420.070313 251.738281 419.988281 249.988281 420 C 248.75 420.011719 241.261719 420.03125 239.988281 420 C 207.128906 419.308594 167.078125 407.460938 130.609375 380 C 102.78125 359.039063 50.929688 310 40.96875 290 C 37.078125 282.191406 44.730469 243.089844 64.851563 197.96875 C 95.320313 129.691406 120.339844 101.328125 138.699219 80 C 166.988281 51.230469 190.378906 40 200.339844 40 C 210.300781 40 269.699219 50.101563 279.421875 60 C 289.378906 70 287.050781 75.269531 289.378906 90 C 289.738281 92.28125 289.941406 94.339844 289.988281 96.25 C 290.269531 106.660156 286.238281 112.121094 282.070313 119.769531 C 280.359375 122.898438 274.910156 129.128906 270.140625 124.980469 C 267.410156 129.828125 256.851563 132.929688 252.929688 126.199219 C 249.179688 132.429688 238.609375 129.660156 236.230469 125.191406 C 232.480469 131.089844 224.300781 124.511719 221.730469 121.910156 C 219.871094 120.019531 217.5 117.21875 215.949219 114.269531 C 215.589844 113.921875 210.230469 101.058594 215 100 C 204.941406 102.230469 202.351563 101.570313 195.28125 108.769531 C 188.210938 115.960938 170 130 170 170 C 170 200 160.5 230.011719 150.539063 240.011719 C 150.539063 240.011719 160.5 240.011719 170.460938 240.011719 C 205 260 231.25 260 299.941406 260 Z "/>
<path style=" stroke:none;fill-rule:nonzero;fill:#F9A825;fill-opacity:1;" d="M 250.140625 420 C 253.480469 419.851563 256.609375 419.648438 259.601563 419.410156 C 261.410156 419.261719 263.078125 419.070313 264.769531 418.890625 C 265.769531 418.78125 266.820313 418.691406 267.78125 418.570313 C 269.980469 418.300781 272.058594 417.988281 274.050781 417.671875 C 274.328125 417.628906 274.628906 417.589844 274.898438 417.539063 C 277.121094 417.171875 279.21875 416.769531 281.210938 416.351563 C 295.121094 413.398438 303.398438 409.339844 310.160156 406 C 313.21875 404.46875 315.988281 403.121094 318.800781 402.070313 L 318.808594 402.070313 C 319.039063 401.988281 319.269531 401.898438 319.488281 401.808594 C 320.921875 401.308594 322.390625 400.910156 323.910156 400.609375 C 324.269531 400.539063 324.648438 400.480469 325.011719 400.421875 C 326.539063 400.171875 328.101563 400 329.820313 400 C 349.738281 400 340.078125 410 360 440 C 363.960938 440 367.640625 439.78125 371.078125 439.429688 C 386.300781 437.839844 397.519531 432.789063 405.910156 425.078125 C 398.21875 419.328125 363.730469 392.148438 353.75 360 C 353.761719 360 353.78125 360 353.789063 360 C 353.75 359.960938 353.730469 359.890625 353.691406 359.839844 C 353.25 358.449219 352.640625 357.128906 351.941406 355.851563 C 349.101563 344.25 351.699219 315.449219 333.75 297.488281 C 317.5 281.25 299.941406 260 299.941406 260 C 241.039063 200.871094 197.898438 220.050781 171.640625 239.171875 C 171.398438 239.679688 171.25 240 171.25 240 L 170.480469 240 C 170.480469 240 170.46875 240.011719 170.46875 240.011719 C 160.511719 240.011719 150.550781 240.011719 150.550781 240.011719 C 150.46875 240.121094 119.960938 280 82.789063 279.871094 C 80.988281 275.449219 80.039063 272.011719 80 270 C 79.449219 243.730469 94.539063 203.539063 110.699219 165 C 132.300781 113.480469 139.910156 81.460938 159.480469 61.128906 C 156.570313 63.46875 153.53125 66.070313 150.460938 68.828125 C 150.070313 69.179688 149.710938 69.460938 149.308594 69.808594 C 145.871094 72.929688 142.328125 76.308594 138.699219 80 C 120.339844 101.328125 95.320313 129.691406 64.871094 197.96875 C 44.738281 243.089844 37.089844 282.191406 40.980469 290 C 50.941406 310 102.789063 359.039063 130.621094 380 C 135.039063 383.328125 139.539063 386.339844 144.078125 389.21875 C 145.601563 390.179688 147.109375 391.078125 148.640625 391.988281 C 151.699219 393.808594 154.769531 395.539063 157.859375 397.171875 C 159.628906 398.109375 161.378906 399.070313 163.148438 399.949219 C 167.230469 401.960938 171.320313 403.839844 175.410156 405.53125 C 175.410156 405.53125 175.421875 405.53125 175.421875 405.53125 C 193.339844 412.949219 211.140625 417.328125 227.488281 419.121094 C 230.449219 419.441406 233.371094 419.679688 236.21875 419.839844 C 238.769531 419.980469 237.539063 419.96875 240 420 C 241.070313 420.011719 248.03125 419.988281 250 420 C 252.039063 420.011719 249.078125 420.050781 250.140625 420 Z "/>
<path style=" stroke:none;fill-rule:nonzero;fill:#FF754C;fill-opacity:1;" d="M 156.25 340 C 123.75 320 64.738281 319.988281 64.738281 319.988281 C 84.96875 341.488281 112.75 366.539063 130.628906 380 C 160.871094 402.769531 194.441406 414.871094 223.761719 418.730469 C 230.691406 419.648438 233.640625 419.980469 240 420 C 242.171875 420.011719 248.058594 420.089844 250.140625 420 C 306.828125 417.539063 309.898438 400 329.820313 400 C 337.558594 400 340.78125 401.539063 343 405.148438 C 342.820313 404.679688 342.640625 404.210938 342.488281 403.75 C 333.738281 376.25 289.988281 371.25 252.488281 371.25 C 238.75 371.25 189.679688 360.570313 156.25 340 Z "/>
<path style=" stroke:none;fill-rule:nonzero;fill:#FFBA57;fill-opacity:1;" d="M 169.988281 240 C 169.988281 240 160 248.828125 160 277.5 C 160 310 192.019531 325.191406 221.25 336.25 C 267.5 353.75 330 350 330 350 C 330 350 330.761719 326.488281 318.75 308.75 C 308.75 293.980469 300 260 300 260 C 250.878906 210.691406 212.679688 215.839844 186.121094 230 C 181.761719 232.320313 169.988281 240 169.988281 240 Z "/>
</g>
</svg>
