<?xml version="1.0" encoding="UTF-8"?>
<svg xmlns="http://www.w3.org/2000/svg" xmlns:xlink="http://www.w3.org/1999/xlink" width="480pt" height="480pt" viewBox="0 0 480 480" version="1.1">
<g id="surface1">
<path style=" stroke:none;fill-rule:nonzero;fill:#4E342E;fill-opacity:1;" d="M 261.351563 198.648438 C 231.378906 168.679688 198.738281 150.140625 178.75 150 C 172.878906 149.960938 168.101563 151.5 164.800781 154.800781 C 150.25 169.351563 169.878906 212.578125 208.648438 251.351563 C 247.421875 290.121094 290.640625 309.75 305.199219 295.199219 C 319.75 280.648438 300.121094 237.421875 261.351563 198.648438 Z "/>
<path style=" stroke:none;fill-rule:nonzero;fill:#FBC02D;fill-opacity:1;" d="M 355 280 L 340 295 L 355 310 L 370 295 Z "/>
<path style=" stroke:none;fill-rule:nonzero;fill:#1976D2;fill-opacity:1;" d="M 165 390 L 150 405 L 165 420 L 180 405 L 175.011719 400 Z "/>
<path style=" stroke:none;fill-rule:nonzero;fill:#FBC02D;fill-opacity:1;" d="M 135 60 L 120 75 L 135 90 L 150 75 Z "/>
<path style=" stroke:none;fill-rule:nonzero;fill:#1976D2;fill-opacity:1;" d="M 245 60 L 230 75 L 245 90 L 260 75 Z "/>
<path style=" stroke:none;fill-rule:nonzero;fill:#FF8F00;fill-opacity:1;" d="M 265 120 L 250 135 L 265 150 L 280 135 Z "/>
<path style=" stroke:none;fill-rule:nonzero;fill:#F50057;fill-opacity:1;" d="M 405 170 L 390 185 L 405 200 L 420 185 Z "/>
<path style=" stroke:none;fill-rule:nonzero;fill:#1976D2;fill-opacity:1;" d="M 75 240 L 60 255 L 75 270 L 90 255 Z "/>
<path style=" stroke:none;fill-rule:nonzero;fill:#FF8F00;fill-opacity:1;" d="M 400 310 L 380 330 L 400 350 L 420 330 Z "/>
<path style=" stroke:none;fill-rule:nonzero;fill:#F50057;fill-opacity:1;" d="M 240 350 L 220 370 L 240 390 L 260 370 Z "/>
<path style=" stroke:none;fill-rule:nonzero;fill:#F50057;fill-opacity:1;" d="M 200 200 C 200.859375 199.230469 210 170 210 140 C 210 127.308594 206.558594 117.488281 199.769531 110.800781 C 188.691406 99.890625 171.738281 100.058594 171.460938 100 L 170 100 L 170 80 L 171.25 80 C 172 80.019531 196.339844 79.53125 213.609375 96.371094 C 224.488281 106.96875 230 121.648438 230 140 C 230 180 200 200 200 200 Z "/>
<path style=" stroke:none;fill-rule:nonzero;fill:#F50057;fill-opacity:1;" d="M 420 420 L 400 420 L 400 418.75 C 399.53125 404.371094 394.578125 390 391.25 390 C 383.960938 390 376.789063 398.78125 371.03125 405.839844 C 364.828125 413.441406 359.480469 420 351.25 420 C 337.46875 420 334.410156 403.640625 331.449219 387.828125 C 330.949219 385.160156 330.308594 381.730469 329.578125 378.46875 C 329.070313 379.511719 328.558594 380.519531 328.101563 381.46875 C 318.75 400.421875 309.078125 420 293.75 420 C 281.929688 420 270 410.71875 270 390 L 290 390 C 290 395.890625 291.539063 400 293.75 400 C 297.578125 398.121094 306.398438 380.25 310.171875 372.621094 C 317.371094 358.03125 321.328125 350 330 350 C 344.71875 350 347.960938 367.359375 351.109375 384.148438 C 351.730469 387.441406 352.570313 391.980469 353.488281 395.699219 C 354.199219 394.851563 354.898438 393.988281 355.539063 393.199219 C 363.53125 383.410156 374.46875 370 391.25 370 C 417.210938 370 419.75 410.359375 420 418.449219 Z "/>
<path style=" stroke:none;fill-rule:nonzero;fill:#FFB300;fill-opacity:1;" d="M 208.648438 251.351563 C 173.769531 216.46875 154.46875 178.058594 161.53125 160.089844 L 161.449219 160 L 60 400 L 300 298.550781 L 299.929688 298.460938 C 281.96875 305.53125 243.539063 286.238281 208.648438 251.351563 Z "/>
<path style=" stroke:none;fill-rule:nonzero;fill:#FFE57F;fill-opacity:1;" d="M 173.078125 206.140625 L 60 400 L 197.570313 239.5 C 187.589844 228.210938 179.300781 216.839844 173.078125 206.140625 Z "/>
<path style=" stroke:none;fill-rule:nonzero;fill:#FF8F00;fill-opacity:1;" d="M 410 60.011719 C 389.828125 60.339844 375.820313 64.691406 367.671875 72.78125 C 363.039063 77.371094 360.421875 83.171875 360.050781 89.621094 C 360.039063 89.738281 360 90.398438 360 90.601563 C 360.179688 103.078125 366.300781 113.890625 368.449219 117.5 C 368.851563 118.179688 369.550781 119.558594 369.699219 120.058594 C 364.328125 119.808594 354.628906 117.820313 348.550781 116.519531 C 330.660156 112.710938 315.238281 109.410156 306.019531 116.851563 C 302.140625 120 300 124.660156 300 130 C 300 141.53125 307.460938 151.691406 313.449219 159.859375 C 315.929688 163.238281 319.679688 168.339844 320 170 C 320 175.191406 316.371094 177.140625 297.179688 182.339844 C 275.621094 188.179688 240 200 220 230 C 250 210 281.019531 207.441406 302.398438 201.648438 C 320.890625 196.648438 340 191.46875 340 170 C 340 162.230469 334.941406 155.328125 329.570313 148.019531 C 325.941406 143.070313 321.558594 137.101563 320.328125 132.351563 C 325.839844 132.191406 337.160156 134.539063 344.371094 136.078125 C 354.171875 138.171875 363.179688 139.949219 370.398438 139.980469 L 370.398438 140 C 378.960938 140 384.949219 135.589844 387.46875 131.800781 L 388.441406 129.960938 C 389.578125 127.121094 390 124.328125 390 121.75 C 390 114.761719 386.878906 109.28125 386.21875 108.199219 C 384.789063 106.050781 380.519531 98.578125 380.109375 91.21875 C 380.101563 91.058594 380.101563 90.550781 380.109375 90.460938 C 380.25 89.089844 380.710938 88 381.761719 86.96875 C 383.449219 85.289063 390.738281 79.859375 415 80 L 420 80 L 420 60 C 420 60 411.410156 59.980469 410 60.011719 Z "/>
<path style=" stroke:none;fill-rule:nonzero;fill:#1976D2;fill-opacity:1;" d="M 400 280 L 420 280 C 420 278.28125 419.898438 276.609375 419.71875 275 C 415.648438 239.628906 368.421875 230 340 230 C 280 230 250 260 250 260 C 250 260 280 250 340 250 C 340.601563 250 400 250.820313 400 280 Z "/>
<path style=" stroke:none;fill-rule:nonzero;fill:#FF8F00;fill-opacity:1;" d="M 106.25 150 C 83.289063 150 80.25 146.460938 80.148438 146.339844 C 80.148438 146.339844 80 145.988281 79.78125 145.960938 C 80.949219 144.019531 87.738281 140.789063 91.390625 139.058594 C 98.96875 135.460938 107.421875 131.429688 109.511719 123.75 C 109.828125 122.589844 110 121.339844 110 120 C 110 118.671875 109.878906 117.429688 109.660156 116.25 C 107.800781 106.441406 98.730469 101.699219 91.910156 98.128906 C 82.828125 93.378906 80 91.121094 80 86.25 C 80 80.449219 88.390625 80.019531 90.078125 80 L 90 80 L 90 60 C 77.941406 60 60 66.988281 60 86.25 C 60 104.011719 74.171875 111.421875 82.640625 115.851563 C 84.191406 116.671875 86.199219 117.71875 87.738281 118.578125 C 86.121094 119.421875 84.269531 120.300781 82.789063 121.011719 C 73.179688 125.578125 60 131.851563 60 145 C 60 170 90.089844 170 106.25 170 C 106.929688 170 107.539063 170.03125 108.078125 170.078125 C 103.78125 174.730469 92.238281 182.828125 70.398438 190.578125 L 77.089844 209.429688 C 93 203.78125 130 188.398438 130 167.5 C 130 159.070313 122.570313 150 106.25 150 Z "/>
</g>
</svg>
