<?xml version="1.0" encoding="UTF-8"?>
<svg xmlns="http://www.w3.org/2000/svg" xmlns:xlink="http://www.w3.org/1999/xlink" width="480pt" height="480pt" viewBox="0 0 480 480" version="1.1">
<g id="surface1">
<path style=" stroke:none;fill-rule:nonzero;fill:#FFB74D;fill-opacity:1;" d="M 127.601563 240 C 126.019531 240 124.429688 239.769531 122.851563 239.21875 L 60.25 219.238281 C 52.390625 216.621094 48.148438 208.128906 50.769531 200.28125 C 53.390625 192.429688 61.898438 188.148438 69.75 190.789063 L 120 206.660156 L 151.578125 138.308594 C 153.828125 133.839844 158.160156 130.75 163.128906 130.128906 L 243.128906 120.128906 C 247.761719 119.539063 252.328125 121.148438 255.601563 124.429688 L 295.910156 164.738281 L 335.390625 123.488281 C 341.75 118.179688 351.210938 119.039063 356.511719 125.398438 C 361.808594 131.769531 360.949219 141.21875 354.589844 146.53125 L 304.589844 196.53125 C 298.628906 201.488281 289.871094 201.140625 284.378906 195.628906 L 230 150 L 170 180 L 141.019531 231.71875 C 138.421875 236.910156 133.140625 240 127.601563 240 Z "/>
<path style=" stroke:none;fill-rule:nonzero;fill:#BA68C8;fill-opacity:1;" d="M 243.128906 120.121094 L 163.128906 130.121094 C 158.160156 130.75 153.820313 133.828125 151.578125 138.300781 L 138.539063 166.519531 L 170 180 L 250 170 L 273.628906 142.441406 L 255.609375 124.421875 C 252.328125 121.128906 247.761719 119.53125 243.128906 120.121094 Z "/>
<path style=" stroke:none;fill-rule:nonzero;fill:#BA68C8;fill-opacity:1;" d="M 210 310 C 187.910156 310 170 312.078125 170 290 L 170 150 C 170 127.898438 187.910156 140 210 140 C 232.089844 140 250 127.898438 250 150 L 250 280.628906 C 250 302.710938 232.089844 310 210 310 Z "/>
<path style=" stroke:none;fill-rule:nonzero;fill:#FFB74D;fill-opacity:1;" d="M 190 30 C 212.089844 30 230 47.910156 230 70 C 230 92.078125 212.089844 110 190 110 C 167.910156 110 150 92.078125 150 70 C 150 47.910156 167.910156 30 190 30 "/>
<path style=" stroke:none;fill-rule:nonzero;fill:#FF754C;fill-opacity:1;" d="M 370 200 C 360 200 360 210 360 210 L 360 272.699219 C 360 272.699219 380 301.761719 380 290.429688 C 380 290.429688 380 241.511719 380 236.679688 C 380 231.820313 383.21875 230.199219 386.441406 230.199219 C 410 230.199219 419.199219 250.078125 419.199219 250.078125 C 419.199219 250.078125 430 200 370 200 Z "/>
<path style=" stroke:none;fill-rule:nonzero;fill:#FF754C;fill-opacity:1;" d="M 380.210938 289.800781 C 380.210938 278.742188 369.015625 269.78125 355.210938 269.78125 C 341.402344 269.78125 330.210938 278.742188 330.210938 289.800781 C 330.210938 300.855469 341.402344 309.820313 355.210938 309.820313 C 369.015625 309.820313 380.210938 300.855469 380.210938 289.800781 Z "/>
<path style=" stroke:none;fill-rule:nonzero;fill:#D2CCC9;fill-opacity:1;" d="M 292.671875 418.378906 L 240.730469 354.609375 L 249.191406 288.238281 C 249.199219 288.210938 249.199219 288.171875 249.199219 288.128906 L 249.878906 282.828125 C 249.921875 282.488281 249.871094 282.070313 249.890625 281.710938 C 249.898438 281.328125 250 281.019531 250 280.628906 L 250 270 L 170 270 L 170 269.921875 L 141.179688 350.269531 C 138.328125 355.398438 137.878906 361.519531 139.929688 367.03125 L 169.929688 447.03125 C 172.949219 455.039063 180.570313 460 188.660156 460 C 190.988281 460 193.371094 459.578125 195.679688 458.730469 C 206.019531 454.851563 211.269531 443.320313 207.390625 432.96875 L 180.628906 361.640625 L 200 320 L 200.128906 357.789063 C 199.578125 362.691406 200.859375 367.609375 203.71875 371.621094 L 260.109375 441.621094 C 264.011719 447.078125 270.171875 450 276.410156 450 C 280.429688 450 284.5 448.789063 288.011719 446.289063 C 297 439.839844 299.078125 427.359375 292.671875 418.378906 Z "/>
<path style=" stroke:none;fill-rule:nonzero;fill:#B2AEAD;fill-opacity:1;" d="M 200 300 L 170 269.921875 L 141.179688 350.269531 C 138.328125 355.398438 137.878906 361.519531 139.929688 367.03125 L 169.929688 447.03125 C 172.949219 455.039063 180.570313 460 188.660156 460 C 190.988281 460 193.371094 459.578125 195.679688 458.730469 C 206.019531 454.851563 211.269531 443.320313 207.390625 432.96875 L 180.628906 361.640625 L 200 320 Z "/>
<path style=" stroke:none;fill-rule:nonzero;fill:#AB47BC;fill-opacity:1;" d="M 170 180 L 190 190 L 190 270 L 170 270 Z "/>
</g>
</svg>
